<svg width="36" height="28" viewBox="0 0 36 28" fill="none" xmlns="http://www.w3.org/2000/svg">
<path d="M36 11.5002V12.5002C36 13.3286 35.3284 14.0002 34.5 14.0002H34L32.3679 25.4244C32.1568 26.9024 30.8911 28.0002 29.3981 28.0002H6.60187C5.10894 28.0002 3.84319 26.9024 3.632 25.4244L2 14.0002H1.5C0.671562 14.0002 0 13.3286 0 12.5002V11.5002C0 10.6717 0.671562 10.0002 1.5 10.0002H5.70881L12.3826 0.823865C13.0323 -0.0693853 14.283 -0.266948 15.1764 0.38274C16.0697 1.03243 16.2672 2.28324 15.6175 3.17655L10.6548 10.0002H25.3452L20.3825 3.17649C19.7328 2.28324 19.9304 1.03236 20.8237 0.382677C21.7169 -0.26701 22.9678 -0.0695103 23.6175 0.823802L30.2912 10.0002H34.5C35.3284 10.0002 36 10.6717 36 11.5002ZM19.5 22.5002V15.5002C19.5 14.6717 18.8284 14.0002 18 14.0002C17.1716 14.0002 16.5 14.6717 16.5 15.5002V22.5002C16.5 23.3286 17.1716 24.0002 18 24.0002C18.8284 24.0002 19.5 23.3286 19.5 22.5002ZM26.5 22.5002V15.5002C26.5 14.6717 25.8284 14.0002 25 14.0002C24.1716 14.0002 23.5 14.6717 23.5 15.5002V22.5002C23.5 23.3286 24.1716 24.0002 25 24.0002C25.8284 24.0002 26.5 23.3286 26.5 22.5002ZM12.5 22.5002V15.5002C12.5 14.6717 11.8284 14.0002 11 14.0002C10.1716 14.0002 9.5 14.6717 9.5 15.5002V22.5002C9.5 23.3286 10.1716 24.0002 11 24.0002C11.8284 24.0002 12.5 23.3286 12.5 22.5002Z" fill="#666666"/>
</svg>
