<svg width="31" height="32" viewBox="0 0 31 32" fill="none" xmlns="http://www.w3.org/2000/svg">
<path d="M29.7083 5.76H24.5417V2.56C24.5417 1.148 23.3832 0 21.9583 0H9.04167C7.6168 0 6.45833 1.148 6.45833 2.56V5.76H1.29167C0.577213 5.76 0 6.332 0 7.04V8.32C0 8.496 0.145312 8.64 0.322917 8.64H2.76094L3.75794 29.56C3.82253 30.924 4.96081 32 6.33724 32H24.6628C26.0432 32 27.1775 30.928 27.2421 29.56L28.2391 8.64H30.6771C30.8547 8.64 31 8.496 31 8.32V7.04C31 6.332 30.4228 5.76 29.7083 5.76ZM21.6354 5.76H9.36458V2.88H21.6354V5.76Z" fill="#666666"/>
</svg>
