<svg width="36" height="36" viewBox="0 0 36 36" fill="none" xmlns="http://www.w3.org/2000/svg">
<g clip-path="url(#clip0)">
<path d="M1.6529 18C1.0459 18 0.561406 18.5114 0.599858 19.1173C0.953343 24.7201 3.94794 29.6057 8.35208 32.5445C8.85663 32.881 9.54135 32.7151 9.84457 32.1902L18.0373 18H1.6529Z" fill="#FFA000"/>
<path d="M26.231 32.1919L18.0373 18L9.84346 32.1919C9.54079 32.7162 9.73827 33.3913 10.2804 33.6602C12.6175 34.8203 15.2512 35.4727 18.0371 35.4727C20.8232 35.4727 23.4569 34.8203 25.794 33.6602C26.3362 33.3913 26.5336 32.7162 26.231 32.1919V32.1919Z" fill="#FFA000"/>
<path d="M9.84457 3.80978C9.54135 3.28491 8.85663 3.11902 8.35208 3.45547C3.94794 6.39432 0.953343 11.2799 0.599858 16.8827C0.561406 17.4886 1.0459 18 1.6529 18H18.0373L9.84457 3.80978Z" fill="#FFA000"/>
<path d="M25.794 2.33954C23.4569 1.17966 20.8232 0.527344 18.0371 0.527344C15.2512 0.527344 12.6175 1.17966 10.2804 2.33954C9.73827 2.6087 9.54079 3.28381 9.84346 3.80786L18.0373 18L26.231 3.80814C26.5336 3.28381 26.3362 2.6087 25.794 2.33954Z" fill="#FFA000"/>
<path d="M35.4749 16.8827C35.1211 11.2799 32.1268 6.39432 27.7224 3.45547C27.2181 3.11902 26.5331 3.28491 26.2299 3.80978L18.0374 18H25.1389L25.1386 21.52C25.1386 22.2396 25.722 22.823 26.4416 22.823H26.4751C27.2236 22.823 27.8248 22.2218 27.8248 21.4799V20.9963C27.8248 20.534 28.1994 20.1596 28.6614 20.1596C29.1237 20.1596 29.4983 20.5343 29.4983 20.9963V24.7549C29.4983 25.3207 29.957 25.7797 30.5228 25.7797C31.0886 25.7797 31.5472 25.3207 31.5472 24.7549V18H34.4213C35.0285 18 35.513 17.4886 35.4749 16.8827V16.8827Z" fill="#FFA000"/>
<path d="M3.46235 18C3.46235 18.8718 3.25911 19.7501 3.4044 20.5801C3.55409 21.4338 4.04793 22.1899 4.33769 22.9861C4.63267 23.7967 4.74308 24.6923 5.16935 25.4292C5.59974 26.1727 6.32264 26.7146 6.87196 27.3686C7.42292 28.0245 7.83189 28.8298 8.48777 29.3807C9.14174 29.9301 10.005 30.194 10.7485 30.6244L18.0374 18H3.46235Z" fill="#FFE082"/>
<path d="M14.413 18L8.07742 28.9731C8.88162 29.8924 9.76932 30.0578 10.7485 30.6244L18.0374 18H14.413Z" fill="#FFB300"/>
<path d="M10.7485 30.6244C11.4826 31.0485 12.1435 31.6686 12.9548 31.9639C13.751 32.2537 14.6519 32.2061 15.5056 32.3558C16.3356 32.5011 17.1656 32.856 18.0374 32.856C18.9091 32.856 19.7389 32.5011 20.5689 32.3558C21.4225 32.2061 22.3234 32.2537 23.1196 31.9639C23.9301 31.6689 24.5888 31.0507 25.3254 30.6244C25.3257 30.6244 25.3257 30.6244 25.326 30.6241L18.0374 18L10.7485 30.6244Z" fill="#FFE082"/>
<path d="M18.0374 18L17.037 19.7325L22.5135 29.2181C22.5132 29.2181 22.5132 29.2181 22.5129 29.2181C21.7763 29.6444 21.1176 30.2627 20.3071 30.5576C19.5109 30.8477 18.61 30.7999 17.7564 30.9496C16.9264 31.0949 16.0966 31.4497 15.2249 31.4497C14.3531 31.4497 13.5231 31.0949 12.6931 30.9496C12.1215 30.8493 11.5288 30.8372 10.9605 30.7535C11.6145 31.1677 12.2228 31.6975 12.9548 31.9639C13.7513 32.2539 14.6519 32.2064 15.5056 32.3558C16.3358 32.5011 17.1656 32.8563 18.0374 32.8563C18.9091 32.8563 19.7389 32.5011 20.5689 32.3558C21.4228 32.2064 22.3234 32.2539 23.1196 31.9639C23.9301 31.6689 24.5888 31.0509 25.3257 30.6247C25.3257 30.6244 25.3257 30.6244 25.326 30.6244L18.0374 18Z" fill="#FFB300"/>
<path d="M10.7485 5.37561C10.005 5.806 9.14174 6.06995 8.48777 6.61926C7.83189 7.17023 7.42292 7.97552 6.87196 8.63168C6.32237 9.28564 5.59974 9.82727 5.16935 10.571C4.74308 11.3077 4.63267 12.2036 4.33769 13.0139C4.04765 13.8101 3.55409 14.5662 3.4044 15.4199C3.25911 16.2499 3.46235 17.1282 3.46235 18H18.0374L10.7485 5.37561Z" fill="#FFE082"/>
<path d="M10.7485 5.37561C10.2516 5.66318 9.7012 5.87686 9.19556 6.15097L14.0067 14.4844C14.5481 15.4218 13.8716 16.5938 12.7889 16.5938H3.37198C3.40356 17.0587 3.46234 17.5303 3.46234 18H18.0374L10.7485 5.37561Z" fill="#FFB300"/>
<path d="M23.1196 4.0361C22.3234 3.74634 21.4225 3.79385 20.5689 3.64417C19.7389 3.49887 18.9088 3.14401 18.0371 3.14401C17.1653 3.14401 16.3356 3.49887 15.5056 3.64417C14.6519 3.79385 13.751 3.74634 12.9548 4.0361C12.2003 4.31076 11.6749 4.80569 10.7485 5.37561L18.0374 18L25.326 5.37561C24.5918 4.95154 23.931 4.33136 23.1196 4.0361Z" fill="#FFE082"/>
<path d="M23.1196 4.0361C22.8565 3.94025 22.5818 3.88174 22.3017 3.84055C22.3701 3.88394 22.4426 3.92844 22.5135 3.96964L16.2249 14.8612L18.0374 18L25.326 5.37561C24.5918 4.95154 23.931 4.33136 23.1196 4.0361Z" fill="#FFB300"/>
<path d="M31.5472 18H32.6121C32.6121 17.1282 32.8153 16.2499 32.67 15.4199C32.5204 14.5662 32.0265 13.8101 31.7368 13.0139C31.4418 12.2033 31.3314 11.3077 30.9051 10.5708C30.4747 9.82727 29.7518 9.28537 29.2025 8.63141C28.6515 7.97552 28.2426 7.17023 27.5867 6.61926C26.9327 6.06995 26.0695 5.806 25.326 5.37561L18.0374 18H25.1389L25.1386 21.52C25.1386 22.2396 25.722 22.823 26.4416 22.823H26.4751C27.2236 22.823 27.8248 22.2218 27.8248 21.4799V20.9962C27.8248 20.534 28.1994 20.1596 28.6614 20.1596C29.1237 20.1596 29.498 20.534 29.498 20.9962V24.7549C29.498 25.3207 29.957 25.7794 30.5228 25.7794C31.0886 25.7794 31.5472 25.3207 31.5472 24.7549V18Z" fill="#FFE082"/>
<path d="M32.67 15.4199C32.5204 14.5662 32.0265 13.8101 31.7368 13.0139C31.4418 12.2033 31.3314 11.3077 30.9051 10.5708C30.4747 9.82727 29.7518 9.28537 29.2025 8.63141C28.6515 7.97552 28.2426 7.17023 27.5867 6.61926C26.9327 6.06995 26.0695 5.806 25.326 5.37561L25.1845 5.62061C25.6215 6.12021 25.9634 6.71732 26.39 7.22516C26.9393 7.87912 27.6622 8.42102 28.0926 9.16452C28.5189 9.90143 28.6293 10.7971 28.9243 11.6076C29.2143 12.4038 29.7079 13.1597 29.8575 14.0136C29.8589 14.0219 29.8603 14.0301 29.8617 14.0383C30.085 15.3792 29.0292 16.5938 27.6699 16.5938H18.8492L18.0374 18H28.7347V20.1632C29.1624 20.2006 29.4983 20.559 29.4983 20.9962V24.7549C29.4983 25.321 29.957 25.7797 30.5228 25.7797C31.0886 25.7797 31.5472 25.3207 31.5472 24.7549V18H32.6121C32.6121 17.1282 32.8153 16.2499 32.67 15.4199V15.4199Z" fill="#FFB300"/>
<path d="M18.5589 28.1341C18.5589 29.2885 17.6229 30.2242 16.4685 30.2242C15.3141 30.2242 14.3781 29.2885 14.3781 28.1341C14.3781 26.9797 15.3141 26.0436 16.4685 26.0436C17.6229 26.0436 18.5589 26.9797 18.5589 28.1341Z" fill="#EF5350"/>
<path d="M12.0416 24.8192C12.0416 25.9736 11.1058 26.9096 9.95114 26.9096C8.79675 26.9096 7.86099 25.9736 7.86099 24.8192C7.86099 23.6648 8.79675 22.7291 9.95114 22.7291C11.1058 22.7291 12.0416 23.6648 12.0416 24.8192Z" fill="#EF5350"/>
<path d="M13.7617 14.0523C13.7617 15.2067 12.8257 16.1428 11.6713 16.1428C10.5169 16.1428 9.5809 15.2067 9.5809 14.0523C9.5809 12.8979 10.5169 11.9619 11.6713 11.9619C12.8257 11.9619 13.7617 12.8979 13.7617 14.0523Z" fill="#EF5350"/>
<path d="M18.1505 6.96918C18.1505 8.12357 17.2145 9.0596 16.0601 9.0596C14.9057 9.0596 13.9699 8.12357 13.9699 6.96918C13.9699 5.81479 14.9057 4.87875 16.0601 4.87875C17.2145 4.87875 18.1505 5.81479 18.1505 6.96918Z" fill="#EF5350"/>
<path d="M27.3326 9.55646C27.3326 10.1338 26.8646 10.6015 26.2875 10.6015C25.7102 10.6015 25.2422 10.1338 25.2422 9.55646C25.2422 8.97913 25.7102 8.51138 26.2875 8.51138C26.8646 8.51138 27.3326 8.97913 27.3326 9.55646V9.55646Z" fill="#FFA000"/>
<path d="M23.9691 14.9845C23.9691 15.5619 23.5011 16.0299 22.9238 16.0299C22.3467 16.0299 21.8787 15.5619 21.8787 14.9845C21.8787 14.4072 22.3467 13.9395 22.9238 13.9395C23.5011 13.9395 23.9691 14.4072 23.9691 14.9845Z" fill="#FFA000"/>
<path d="M22.7428 6.42096C22.7428 6.99829 22.2748 7.46603 21.6977 7.46603C21.1204 7.46603 20.6524 6.99829 20.6524 6.42096C20.6524 5.84363 21.1204 5.37561 21.6977 5.37561C22.2748 5.37561 22.7428 5.84363 22.7428 6.42096Z" fill="#FFA000"/>
<path d="M19.0824 12.2036C19.0824 12.7809 18.6144 13.249 18.0371 13.249C17.46 13.249 16.992 12.7809 16.992 12.2036C16.992 11.6266 17.46 11.1585 18.0371 11.1585C18.6144 11.1585 19.0824 11.6266 19.0824 12.2036Z" fill="#FFA000"/>
<path d="M7.37045 15.4064C7.37045 15.9837 6.90244 16.4518 6.32538 16.4518C5.74805 16.4518 5.28003 15.9837 5.28003 15.4064C5.28003 14.8291 5.74805 14.3613 6.32538 14.3613C6.90244 14.3613 7.37045 14.8291 7.37045 15.4064Z" fill="#FFA000"/>
<path d="M13.3731 20.3645C13.3731 20.9416 12.9051 21.4096 12.328 21.4096C11.7507 21.4096 11.2827 20.9416 11.2827 20.3645C11.2827 19.7872 11.7507 19.3192 12.328 19.3192C12.9051 19.3192 13.3731 19.7872 13.3731 20.3645Z" fill="#FFA000"/>
<path d="M10.9536 8.76627C10.7919 8.21228 10.2112 7.89423 9.65726 8.05627C9.10328 8.21805 8.7855 8.79868 8.94727 9.35266C9.10932 9.90665 9.68967 10.2244 10.2437 10.0627C10.7976 9.90061 11.1157 9.32025 10.9536 8.76627Z" fill="#FFA000"/>
<path d="M7.74701 21.1355C7.74701 21.7128 7.27899 22.1808 6.70166 22.1808C6.1246 22.1808 5.65659 21.7128 5.65659 21.1355C5.65659 20.5582 6.1246 20.0904 6.70166 20.0904C7.27899 20.0904 7.74701 20.5582 7.74701 21.1355Z" fill="#FFA000"/>
<path d="M22.4673 29.1791C22.4673 29.7565 21.9996 30.2245 21.4222 30.2245C20.8449 30.2245 20.3772 29.7565 20.3772 29.1791C20.3772 28.6021 20.8449 28.1341 21.4222 28.1341C21.9996 28.1341 22.4673 28.6021 22.4673 29.1791V29.1791Z" fill="#FFA000"/>
<path d="M19.0824 23.2259C19.0824 23.803 18.6144 24.271 18.0371 24.271C17.46 24.271 16.992 23.803 16.992 23.2259C16.992 22.6486 17.46 22.1806 18.0371 22.1806C18.6144 22.1806 19.0824 22.6486 19.0824 23.2259V23.2259Z" fill="#FFA000"/>
<path d="M30.1542 14.193C30.1542 15.3474 29.2181 16.2834 28.0638 16.2834C26.9094 16.2834 25.9736 15.3474 25.9736 14.193C25.9736 13.0386 26.9094 12.1025 28.0638 12.1025C29.2181 12.1025 30.1542 13.0386 30.1542 14.193Z" fill="#EF5350"/>
<path d="M16.9036 26.0892C17.7363 27.6347 16.3856 29.4964 14.6272 29.1239C14.9801 29.779 15.6723 30.2242 16.4685 30.2242C17.6232 30.2242 18.5589 29.2885 18.5589 28.1341C18.5589 27.1288 17.8492 26.2895 16.9036 26.0892V26.0892Z" fill="#D32F2F"/>
<path d="M10.3862 22.7747C11.219 24.3199 9.86847 26.1815 8.10983 25.8094C8.46304 26.4644 9.15491 26.9096 9.95142 26.9096C11.1058 26.9096 12.0416 25.9736 12.0416 24.8192C12.0416 23.814 11.3318 22.9749 10.3862 22.7747Z" fill="#D32F2F"/>
<path d="M12.1064 12.0075C12.9389 13.553 11.5884 15.4146 9.83002 15.0422C10.183 15.6973 10.8751 16.1428 11.6713 16.1428C12.8257 16.1428 13.7617 15.2067 13.7617 14.0523C13.7617 13.0471 13.052 12.2077 12.1064 12.0075Z" fill="#D32F2F"/>
<path d="M16.4951 4.92435C17.3276 6.46985 15.9774 8.33148 14.2188 7.95905C14.5717 8.61411 15.2639 9.0596 16.0601 9.0596C17.2145 9.0596 18.1505 8.12357 18.1505 6.96918C18.1505 5.96393 17.4408 5.12485 16.4951 4.92435Z" fill="#D32F2F"/>
<path d="M28.4988 12.1484C29.3316 13.6936 27.9811 15.5555 26.2224 15.1831C26.5754 15.8382 27.2675 16.2834 28.0638 16.2834C29.2184 16.2834 30.1542 15.3474 30.1542 14.193C30.1542 13.1877 29.4445 12.3484 28.4988 12.1484V12.1484Z" fill="#D32F2F"/>
<path d="M19.0863 28.1341C19.0863 26.6907 17.9118 25.5163 16.4685 25.5163C15.0249 25.5163 13.8507 26.6907 13.8507 28.1341C13.8507 29.5774 15.0252 30.7516 16.4685 30.7516C17.9118 30.7516 19.0863 29.5774 19.0863 28.1341V28.1341ZM14.9054 28.1341C14.9054 27.2722 15.6066 26.571 16.4685 26.571C17.3304 26.571 18.0316 27.2722 18.0316 28.1341C18.0316 28.9959 17.3304 29.6969 16.4685 29.6969C15.6066 29.6969 14.9054 28.9959 14.9054 28.1341Z" fill="black"/>
<path d="M9.95114 22.2017C8.50781 22.2017 7.33365 23.3759 7.33365 24.8192C7.33365 26.2625 8.50781 27.437 9.95114 27.437C11.3947 27.437 12.5689 26.2625 12.5689 24.8192C12.5689 23.3759 11.3947 22.2017 9.95114 22.2017ZM9.95114 26.3823C9.08954 26.3823 8.38834 25.6811 8.38834 24.8192C8.38834 23.9573 9.08954 23.2564 9.95114 23.2564C10.813 23.2564 11.5142 23.9573 11.5142 24.8192C11.5142 25.6811 10.813 26.3823 9.95114 26.3823Z" fill="black"/>
<path d="M11.6713 11.4346C10.2277 11.4346 9.05356 12.609 9.05356 14.0523C9.05356 15.4957 10.2277 16.6701 11.6713 16.6701C13.1147 16.6701 14.2888 15.4957 14.2888 14.0523C14.2888 12.609 13.1147 11.4346 11.6713 11.4346ZM11.6713 15.6154C10.8094 15.6154 10.1082 14.9142 10.1082 14.0523C10.1082 13.1905 10.8094 12.4893 11.6713 12.4893C12.5329 12.4893 13.2341 13.1905 13.2341 14.0523C13.2341 14.9142 12.5332 15.6154 11.6713 15.6154Z" fill="black"/>
<path d="M18.6779 6.96918C18.6779 5.52585 17.5034 4.35141 16.0601 4.35141C14.6168 4.35141 13.4426 5.52585 13.4426 6.96918C13.4426 8.41251 14.6168 9.58694 16.0601 9.58694C17.5034 9.58694 18.6779 8.41251 18.6779 6.96918ZM14.497 6.96918C14.497 6.1073 15.1982 5.4061 16.0601 5.4061C16.922 5.4061 17.6232 6.1073 17.6232 6.96918C17.6232 7.83105 16.922 8.53226 16.0601 8.53226C15.1982 8.53226 14.497 7.83105 14.497 6.96918Z" fill="black"/>
<path d="M27.86 9.55646C27.86 8.68936 27.1546 7.98404 26.2875 7.98404C25.4204 7.98404 24.7148 8.68936 24.7148 9.55646C24.7148 10.4236 25.4204 11.1289 26.2875 11.1289C27.1546 11.1289 27.86 10.4236 27.86 9.55646V9.55646ZM25.7695 9.55646C25.7695 9.27081 26.0019 9.03873 26.2875 9.03873C26.5732 9.03873 26.8053 9.27081 26.8053 9.55646C26.8053 9.8421 26.5732 10.0742 26.2875 10.0742C26.0019 10.0742 25.7695 9.8421 25.7695 9.55646Z" fill="black"/>
<path d="M22.9238 13.4121C22.0567 13.4121 21.3514 14.1174 21.3514 14.9845C21.3514 15.8516 22.0567 16.5572 22.9238 16.5572C23.7909 16.5572 24.4965 15.8516 24.4965 14.9845C24.4965 14.1174 23.7909 13.4121 22.9238 13.4121ZM22.9238 15.5025C22.6384 15.5025 22.4061 15.2702 22.4061 14.9845C22.4061 14.6992 22.6384 14.4668 22.9238 14.4668C23.2094 14.4668 23.4418 14.6992 23.4418 14.9845C23.4418 15.2702 23.2094 15.5025 22.9238 15.5025Z" fill="black"/>
<path d="M21.6977 7.99338C22.5648 7.99338 23.2701 7.28806 23.2701 6.42096C23.2701 5.55386 22.5648 4.84827 21.6977 4.84827C20.8306 4.84827 20.1253 5.55386 20.1253 6.42096C20.1253 7.28806 20.8306 7.99338 21.6977 7.99338V7.99338ZM21.6977 5.90295C21.9831 5.90295 22.2155 6.13531 22.2155 6.42096C22.2155 6.7066 21.9831 6.93869 21.6977 6.93869C21.4121 6.93869 21.18 6.70633 21.18 6.42096C21.18 6.13531 21.4121 5.90295 21.6977 5.90295Z" fill="black"/>
<path d="M16.4647 12.2036C16.4647 13.0707 17.1703 13.7763 18.0374 13.7763C18.9044 13.7763 19.6098 13.0707 19.6098 12.2036C19.6098 11.3365 18.9044 10.6312 18.0374 10.6312C17.17 10.6312 16.4647 11.3365 16.4647 12.2036V12.2036ZM18.5551 12.2036C18.5551 12.4893 18.3227 12.7216 18.0371 12.7216C17.7517 12.7216 17.5193 12.4893 17.5193 12.2036C17.5193 11.9182 17.7517 11.6859 18.0371 11.6859C18.3227 11.6859 18.5551 11.9182 18.5551 12.2036Z" fill="black"/>
<path d="M6.32538 13.834C5.45828 13.834 4.75296 14.5393 4.75296 15.4064C4.75296 16.2735 5.45828 16.9791 6.32538 16.9791C7.19247 16.9791 7.8978 16.2735 7.8978 15.4064C7.8978 14.5393 7.19247 13.834 6.32538 13.834ZM6.32538 15.9244C6.03973 15.9244 5.80765 15.692 5.80765 15.4064C5.80765 15.121 6.03973 14.8887 6.32538 14.8887C6.61075 14.8887 6.84311 15.121 6.84311 15.4064C6.84311 15.692 6.61075 15.9244 6.32538 15.9244Z" fill="black"/>
<path d="M12.328 21.937C13.1951 21.937 13.9005 21.2316 13.9005 20.3645C13.9005 19.4974 13.1949 18.7918 12.328 18.7918C11.4609 18.7918 10.7553 19.4974 10.7553 20.3645C10.7553 21.2316 11.4609 21.937 12.328 21.937ZM12.328 19.8465C12.6134 19.8465 12.8458 20.0789 12.8458 20.3645C12.8458 20.6499 12.6134 20.8823 12.328 20.8823C12.0424 20.8823 11.81 20.6499 11.81 20.3645C11.81 20.0789 12.0424 19.8465 12.328 19.8465Z" fill="black"/>
<path d="M9.94922 10.6328C10.0973 10.6328 10.2464 10.6117 10.3925 10.5689C11.2247 10.3255 11.704 9.45072 11.4607 8.61823C11.3428 8.2153 11.075 7.88187 10.7067 7.68027C10.3381 7.47839 9.91324 7.43225 9.51004 7.55008C8.67782 7.79343 8.19854 8.66821 8.44189 9.50043C8.55972 9.90363 8.82751 10.2371 9.19583 10.4387C9.43066 10.5672 9.68857 10.6328 9.94922 10.6328ZM9.80612 8.56247C9.85419 8.54846 9.90335 8.54132 9.95197 8.54132C10.0379 8.54132 10.1228 8.56302 10.2 8.60532C10.3214 8.67178 10.4095 8.78137 10.4483 8.91431C10.5285 9.18842 10.3705 9.47653 10.0967 9.55646C9.96378 9.59519 9.82397 9.58008 9.70258 9.51361C9.58145 9.44715 9.49329 9.33756 9.45428 9.20462C9.37408 8.93079 9.53201 8.64267 9.80612 8.56247Z" fill="black"/>
<path d="M8.27435 21.1355C8.27435 20.2684 7.56876 19.5631 6.70166 19.5631C5.83456 19.5631 5.12924 20.2684 5.12924 21.1355C5.12924 22.0026 5.83456 22.7082 6.70166 22.7082C7.56876 22.7079 8.27435 22.0026 8.27435 21.1355ZM6.70166 21.6532C6.41629 21.6532 6.18393 21.4209 6.18393 21.1355C6.18393 20.8499 6.41629 20.6175 6.70166 20.6175C6.9873 20.6175 7.21967 20.8499 7.21967 21.1355C7.21967 21.4209 6.9873 21.6532 6.70166 21.6532Z" fill="black"/>
<path d="M21.4222 30.7516C22.2893 30.7516 22.9947 30.0462 22.9947 29.1791C22.9947 28.312 22.2893 27.6067 21.4222 27.6067C20.5551 27.6067 19.8498 28.312 19.8498 29.1791C19.8498 30.0462 20.5551 30.7516 21.4222 30.7516V30.7516ZM21.4222 28.6614C21.7079 28.6614 21.94 28.8938 21.94 29.1791C21.94 29.4648 21.7079 29.6969 21.4222 29.6969C21.1369 29.6969 20.9045 29.4648 20.9045 29.1791C20.9045 28.8938 21.1369 28.6614 21.4222 28.6614Z" fill="black"/>
<path d="M18.0371 24.7983C18.9042 24.7983 19.6098 24.093 19.6098 23.2259C19.6098 22.3588 18.9042 21.6535 18.0371 21.6535C17.17 21.6535 16.4647 22.3588 16.4647 23.2259C16.4647 24.093 17.17 24.7983 18.0371 24.7983V24.7983ZM18.0371 22.7079C18.3227 22.7079 18.5551 22.9403 18.5551 23.2259C18.5551 23.5113 18.3227 23.7437 18.0371 23.7437C17.7517 23.7437 17.5193 23.5113 17.5193 23.2259C17.5193 22.9403 17.7517 22.7079 18.0371 22.7079V22.7079Z" fill="black"/>
<path d="M28.0638 11.5752C26.6204 11.5752 25.4463 12.7496 25.4463 14.193C25.4463 15.6363 26.6204 16.8107 28.0638 16.8107C29.5071 16.8107 30.6815 15.6363 30.6815 14.193C30.6815 12.7496 29.5071 11.5752 28.0638 11.5752V11.5752ZM28.0638 15.756C27.2019 15.756 26.5009 15.0548 26.5009 14.193C26.5009 13.3311 27.2019 12.6299 28.0638 12.6299C28.9256 12.6299 29.6268 13.3311 29.6268 14.193C29.6268 15.0548 28.9256 15.756 28.0638 15.756V15.756Z" fill="black"/>
<path d="M36.0011 16.8495C35.6459 11.2256 32.6681 6.12158 28.0148 3.01685C27.6655 2.78394 27.2323 2.70154 26.8206 2.78778C26.6904 2.38843 26.404 2.05362 26.0282 1.8674C23.5319 0.628143 20.8432 0 18.0371 0C15.2312 0 12.5425 0.628143 10.0459 1.8674C9.67043 2.05389 9.38396 2.38843 9.25377 2.78778C8.84206 2.70154 8.40865 2.78394 8.05929 3.01685C3.41043 6.11884 0.428739 11.2209 0.0733313 16.8495C0.0469641 17.2694 0.192808 17.6863 0.473508 18C0.192533 18.3137 0.0469641 18.7306 0.0733313 19.1505C0.428464 24.7744 3.40631 29.8784 8.05956 32.9832C8.39629 33.2078 8.82531 33.302 9.25377 33.2122C9.38396 33.6116 9.67043 33.9464 10.0462 34.1329C12.5425 35.3719 15.2312 36 18.0371 36C20.8432 36 23.5319 35.3719 26.0282 34.1326C26.842 33.7289 27.142 32.7151 26.6877 31.9282L18.9506 18.5273H24.6113V21.52C24.6113 22.4904 25.3762 23.3503 26.4751 23.3503C27.51 23.3503 28.3521 22.5113 28.3521 21.4799V20.9962C28.3521 20.8257 28.4908 20.687 28.6614 20.687C28.8319 20.687 28.9706 20.8257 28.9706 20.9962V24.7549C28.9706 25.6108 29.6669 26.3068 30.5227 26.3068C31.3783 26.3068 32.0746 25.6108 32.0746 24.7549V18.5273H34.4212C35.3325 18.5273 36.0582 17.7572 36.0011 16.8495V16.8495ZM8.82695 28.977C8.23919 28.4832 7.84231 27.7039 7.27569 27.0294C6.70989 26.3559 6.01171 25.8319 5.62582 25.165C5.24404 24.5056 5.1361 23.6382 4.83315 22.8057C4.53433 21.985 4.05807 21.2558 3.92404 20.4892C3.81994 19.8957 3.92431 19.234 3.97045 18.5273H17.1238L10.5458 29.9204C9.91295 29.6084 9.2936 29.3689 8.82695 28.977V28.977ZM3.92404 15.5108C4.05807 14.7442 4.53433 14.015 4.83315 13.1943C5.13638 12.361 5.24404 11.4947 5.62582 10.835C6.01144 10.1681 6.71017 9.6438 7.27569 8.97061C7.84286 8.29495 8.23891 7.51712 8.82695 7.02301C9.2936 6.63107 9.91323 6.3913 10.546 6.07928L13.3209 10.8858C13.4665 11.1379 13.7892 11.2245 14.0413 11.0789C14.2935 10.9333 14.38 10.6106 14.2344 10.3585L11.4587 5.55084C12.0416 5.15918 12.5565 4.74225 13.1352 4.53159C13.8474 4.27231 14.72 4.31708 15.5964 4.16382C16.4534 4.01358 17.2532 3.67136 18.0371 3.67136C18.8212 3.67136 19.621 4.01358 20.4779 4.16382C21.3544 4.31708 22.2272 4.27231 22.9392 4.53159C23.5176 4.74225 24.0323 5.15891 24.6157 5.55084L18.0371 16.9453L15.4649 12.4898C15.319 12.2377 14.9966 12.1512 14.7445 12.2967C14.4923 12.4426 14.4058 12.765 14.5514 13.0172L17.1238 17.4727H3.97073C3.92431 16.766 3.81994 16.1043 3.92404 15.5108V15.5108ZM10.515 2.81195C12.8644 1.64603 15.3954 1.05469 18.0371 1.05469C20.679 1.05469 23.21 1.64603 25.5594 2.81195C25.8275 2.94489 25.9261 3.28162 25.7742 3.54446L25.1444 4.63513C24.5638 4.2399 24.0007 3.79578 23.2998 3.54062C22.4214 3.22092 21.4881 3.27008 20.6598 3.12479C19.8567 2.98444 18.9973 2.61667 18.0371 2.61667C17.0771 2.61667 16.2175 2.98444 15.4146 3.12479C14.5865 3.27008 13.653 3.22064 12.7743 3.54062C12.0737 3.79578 11.512 4.2388 10.93 4.63513C10.9253 4.62717 10.3005 3.54501 10.3005 3.54501C10.3002 3.54474 10.3002 3.54446 10.3002 3.54446C10.1486 3.28189 10.2467 2.94516 10.515 2.81195ZM1.1261 16.9156C1.45623 11.6829 4.26708 6.81509 8.64486 3.8941C8.89397 3.72794 9.23565 3.80978 9.38781 4.07346L10.0173 5.16385C9.38341 5.47174 8.71599 5.73898 8.14855 6.21552C7.42537 6.82306 7.00213 7.65665 6.46792 8.29248C5.93536 8.92639 5.18719 9.48697 4.71285 10.3068C4.24264 11.1195 4.12838 12.0468 3.84219 12.8334C3.56121 13.6052 3.0498 14.388 2.885 15.3289C2.75839 16.0521 2.86276 16.7654 2.91329 17.4727H1.65289C1.34857 17.4727 1.10687 17.2172 1.1261 16.9156V16.9156ZM8.64486 32.1056C4.26708 29.1849 1.45623 24.3171 1.1261 19.0841C1.10687 18.7828 1.34857 18.5273 1.65316 18.5273H2.91329C2.86276 19.2357 2.75839 19.9479 2.885 20.6711C3.0498 21.612 3.56121 22.3951 3.84219 23.1666C4.12838 23.9529 4.24291 24.8805 4.71285 25.6932C5.18719 26.5128 5.93563 27.0736 6.46819 27.7078C7.0024 28.3436 7.42565 29.1772 8.14882 29.7845C8.71572 30.261 9.38286 30.528 10.0173 30.8362L9.38781 31.9263C9.23647 32.1888 8.89534 32.2729 8.64486 32.1056V32.1056ZM25.5594 33.188C23.21 34.354 20.679 34.9453 18.0371 34.9453C15.3951 34.9453 12.8644 34.354 10.515 33.188C10.2469 33.0548 10.1483 32.7184 10.3002 32.4555L10.93 31.3649C11.5109 31.7604 12.0737 32.2042 12.7743 32.4594C13.0476 32.5591 13.3506 32.4182 13.4503 32.1441C13.55 31.8705 13.4088 31.5678 13.1352 31.4684C12.5568 31.2578 12.0418 30.8411 11.4587 30.4489L18.0371 19.0547L24.6157 30.4489C24.0323 30.8411 23.5176 31.2578 22.9392 31.4684C22.227 31.7277 21.3544 31.6826 20.4779 31.8362C19.621 31.9861 18.8212 32.3286 18.0371 32.3286C17.201 32.3286 16.38 31.9466 15.3968 31.8043C15.1084 31.7628 14.8411 31.9628 14.7994 32.2509C14.7579 32.5393 14.9579 32.8068 15.246 32.8483C16.1548 32.9796 17.0214 33.3833 18.0371 33.3833C18.9973 33.3833 19.8564 33.0158 20.6598 32.8752C21.4876 32.7302 22.4211 32.7794 23.3001 32.4594C24.0004 32.2045 24.5627 31.7612 25.1444 31.3649L25.7742 32.4555C25.9258 32.7181 25.8277 33.0548 25.5594 33.188V33.188ZM31.5472 17.4727C31.2561 17.4727 31.0199 17.7089 31.0199 18V24.7549C31.0199 25.0291 30.7968 25.2521 30.5227 25.2521C30.2486 25.2521 30.0256 25.0291 30.0256 24.7549V20.9962C30.0256 20.244 29.4137 19.6323 28.6614 19.6323C27.9094 19.6323 27.2974 20.244 27.2974 20.9962V21.4799C27.2974 21.9004 26.9695 22.2957 26.4416 22.2957C26.0129 22.2957 25.666 21.9488 25.666 21.52L25.6662 18.5273H29.654C29.9451 18.5273 30.1813 18.2911 30.1813 18C30.1813 17.7089 29.9451 17.4727 29.654 17.4727H18.9506L25.5284 6.07956C26.1603 6.39102 26.7805 6.6308 27.2474 7.02301C27.8355 7.51685 28.2318 8.29578 28.7987 8.97061C29.3645 9.64407 30.0627 10.1678 30.4486 10.835C30.8304 11.4944 30.938 12.3618 31.2412 13.1943C31.5401 14.015 32.016 14.7442 32.1504 15.5108C32.2545 16.1043 32.1501 16.766 32.1037 17.4727H31.5472ZM34.4212 17.4727H33.1611C33.2116 16.7643 33.316 16.0521 33.1894 15.3289C33.0246 14.388 32.5132 13.6049 32.2322 12.8334C31.9463 12.0473 31.8315 11.1193 31.3615 10.3068C30.8872 9.48697 30.1385 8.92584 29.6062 8.29221C29.0725 7.65665 28.6487 6.82278 27.9258 6.21552C27.3587 5.73926 26.6921 5.47229 26.0571 5.16385L26.6866 4.07346C26.8387 3.80978 27.1807 3.72794 27.4295 3.8941C31.8073 6.81509 34.6182 11.6829 34.9483 16.9156C34.9675 17.2178 34.7253 17.4727 34.4212 17.4727V17.4727Z" fill="black"/>
</g>
<defs>
<clipPath id="clip0">
<rect width="36" height="36" fill="white"/>
</clipPath>
</defs>
</svg>
